<?xml version="1.0" standalone="no"?>
<!DOCTYPE svg PUBLIC "-//W3C//DTD SVG 20010904//EN"
 "http://www.w3.org/TR/2001/REC-SVG-20010904/DTD/svg10.dtd">
<svg version="1.0" xmlns="http://www.w3.org/2000/svg"
 width="640.000000pt" height="640.000000pt" viewBox="0 0 640.000000 640.000000"
 preserveAspectRatio="xMidYMid meet">
<metadata>
Created by potrace 1.14, written by Peter Selinger 2001-2017
</metadata>
<g transform="translate(0.000000,640.000000) scale(0.100000,-0.100000)"
fill="#000000" stroke="none">
<path d="M2920 6289 c-112 -10 -175 -18 -275 -36 -49 -9 -97 -16 -105 -18 -8
-1 -24 -4 -35 -8 -11 -3 -31 -8 -45 -11 -78 -13 -365 -98 -425 -126 -11 -5
-69 -30 -130 -55 -370 -155 -699 -378 -1001 -679 -83 -83 -186 -196 -230 -251
-376 -475 -590 -993 -661 -1595 -9 -83 -11 -506 -2 -580 4 -36 10 -87 13 -115
3 -27 11 -77 16 -110 6 -33 13 -69 14 -80 2 -11 9 -44 16 -73 7 -30 13 -59 14
-65 33 -156 125 -412 219 -607 72 -148 232 -412 304 -500 7 -8 35 -44 63 -80
92 -116 261 -294 360 -380 65 -56 118 -101 155 -130 22 -17 48 -37 58 -46 19
-15 163 -113 237 -160 179 -113 461 -245 685 -319 137 -45 343 -98 430 -110
11 -2 47 -8 80 -14 71 -12 129 -19 245 -31 88 -8 560 -6 595 3 11 2 51 8 88
12 37 3 76 8 86 10 10 2 36 6 57 10 67 10 98 16 144 26 25 6 52 12 60 14 8 2
35 8 60 14 25 7 52 13 61 15 184 44 548 195 739 306 71 41 254 156 275 173 6
4 33 25 62 45 213 156 447 386 618 607 299 388 500 838 585 1309 12 66 24 138
26 160 3 23 7 57 11 76 9 58 11 521 2 585 -4 33 -11 87 -14 120 -5 46 -40 237
-60 320 -55 238 -161 508 -299 759 -41 76 -199 321 -215 336 -4 3 -25 30 -49
61 -144 190 -389 427 -627 606 -163 124 -416 267 -636 361 -97 42 -331 126
-379 137 -8 2 -70 17 -137 33 -67 17 -139 33 -160 36 -21 4 -63 11 -93 16
-175 29 -294 38 -520 37 -113 0 -239 -4 -280 -8z"/>
</g>
</svg>
